#!OML:ASF F:\VICON\USERDATA\INSTALL\Justin_Nancy\Justin_Nancy.ASF
:FULLY-SPECIFIED
:DEGREES
98
root -8.26489 17.6136 -17.3317 -0.534401 -5.62242 3.52053
lowerback 6.30449 0.342939 -3.53967
upperback 0.264141 0.230782 0.848692
thorax -3.28203 0.174184 2.84647
lowerneck -18.2863 -2.80809 -9.48074
upperneck 20.0511 -2.39932 5.19603
head 9.54268 -1.26094 3.05642
rclavicle -5.19325e-015 -3.18055e-015
rhumerus -28.8066 -16.1468 -80.145
rradius 29.2856
rwrist 10.3777
rhand -13.7378 10.8456
rfingers 7.12502
rthumb 12.3819 -18.7677
lclavicle -5.19325e-015 -3.18055e-015
lhumerus -31.8786 17.7728 80.5614
lradius 20.7279
lwrist -16.0931
lhand -11.4701 29.797
lfingers 7.12502
lthumb 14.5676 59.2654
rfemur -17.3802 -2.16699 17.9356
rtibia 66.5167
rfoot 2.45575 -7.23748
rtoes 5.81786
lfemur -10.7123 1.7469 -28.2373
ltibia 20.8349
lfoot -8.21686 -4.47051
ltoes 7.42935
99
root -8.26051 17.6061 -17.1931 -0.588995 -5.66276 3.79056
lowerback 6.41366 0.313585 -3.91073
upperback 0.222911 0.160791 0.872962
thorax -3.38223 0.148006 3.08756
lowerneck -18.274 -2.79803 -9.44165
upperneck 20.0611 -2.34263 4.96205
head 9.53691 -1.25848 2.97507
rclavicle 4.17448e-015 2.14687e-014
rhumerus -29.1043 -16.3941 -79.9325
rradius 29.184
rwrist 10.5276
rhand -13.1656 9.90668
rfingers 7.12502
rthumb 12.9336 -19.6725
lclavicle 4.17448e-015 2.14687e-014
lhumerus -31.6394 18.1075 80.4224
lradius 20.3222
lwrist -15.5114
lhand -13.653 26.7658
lfingers 7.12502
lthumb 12.4637 56.3742
rfemur -18.4725 -2.10796 17.6442
rtibia 66.8352
rfoot 1.54845 -7.41269
rtoes 6.29541
lfemur -10.3403 1.8694 -28.6118
ltibia 21.1992
lfoot -8.80124 -4.39942
ltoes 7.95341
100
root -8.25504 17.5968 -17.0569 -0.807057 -5.70794 3.97387
lowerback 6.62475 0.236783 -4.13241
upperback 0.208573 0.0339372 0.90355
thorax -3.50556 0.0917026 3.25702
lowerneck -17.9104 -2.80395 -9.46087
upperneck 19.9426 -2.31729 4.69262
head 9.42527 -1.28083 2.88553
rclavicle -8.69683e-016 7.15625e-015
rhumerus -29.4623 -17.0111 -79.4159
rradius 28.3826
rwrist 11.5421
rhand -13.4111 11.6179
rfingers 7.12502
rthumb 12.6968 -17.9761
lclavicle -8.69683e-016 7.15625e-015
lhumerus -31.6649 18.4259 80.2771
lradius 20.948
lwrist -17.0187
lhand -11.864 29.2287
lfingers 7.12502
lthumb 14.188 58.7242
rfemur -19.329 -1.98667 17.4397
rtibia 66.9585
rfoot 0.482174 -7.3226
rtoes 5.98074
lfemur -9.81759 2.04398 -28.8743
ltibia 21.6338
lfoot -9.35856 -4.36701
ltoes 8.09874
101
root -8.25146 17.5823 -16.9324 -0.71432 -5.73456 3.91744
lowerback 6.76851 0.133776 -4.08542
upperback 0.0548893 -0.105704 0.967578
thorax -3.7338 0.0299607 3.31195
lowerneck -17.5974 -2.7015 -9.49092
upperneck 19.8488 -2.1722 4.58401
head 9.3236 -1.22954 2.87114
rclavicle -7.82715e-015 1.35174e-014
rhumerus -29.9299 -18.1506 -78.6714
rradius 27.1874
rwrist 13.4239
rhand -14.5854 14.6305
rfingers 7.12502
rthumb 11.5646 -15.0304
lclavicle -7.82715e-015 1.35174e-014
lhumerus -31.6899 18.4549 80.2615
lradius 21.237
lwrist -16.2773
lhand -13.0934 28.0891
lfingers 7.12502
lthumb 13.0032 57.6638
rfemur -20.585 -1.80286 17.5616
rtibia 66.9004
rfoot -0.538506 -7.27096
rtoes 5.00324
lfemur -9.72141 2.32105 -28.8659
ltibia 22.095
lfoot -9.81717 -4.4868
ltoes 8.2113
102
root -8.24719 17.5689 -16.8008 -0.506622 -5.5817 4.00546
lowerback 6.80427 0.0437853 -4.20835
upperback -0.102826 -0.237604 1.00893
thorax -3.90601 -0.0259703 3.43867
lowerneck -17.6912 -2.67063 -9.30009
upperneck 19.9478 -2.09669 4.24934
head 9.36447 -1.21806 2.73341
rclavicle 4.87022e-015 4.77083e-015
rhumerus -30.4253 -18.0194 -78.5952
rradius 27.8183
rwrist 12.4015
rhand -13.7362 11.6897
rfingers 7.12502
rthumb 12.3834 -17.9235
lclavicle 4.87022e-015 4.77083e-015
lhumerus -31.5126 18.2327 80.3696
lradius 21.4577
lwrist -15.2424
lhand -13.9131 26.8911
lfingers 7.12502
lthumb 12.2129 56.5146
rfemur -21.8745 -1.80639 17.4949
rtibia 66.6763
rfoot -1.82854 -7.09178
rtoes 4.4761
lfemur -9.8175 2.32544 -29.0343
ltibia 22.6028
lfoot -10.2683 -4.4899
ltoes 7.92531
103
root -8.23934 17.5547 -16.6613 -0.440875 -5.32002 4.26339
lowerback 6.63757 -0.0804245 -4.32696
upperback -0.0619612 -0.408293 0.909818
thorax -3.75419 -0.113816 3.41727
lowerneck -17.7504 -2.64495 -9.19056
upperneck 20.0518 -2.06071 4.13547
head 9.40657 -1.20706 2.68143
rclavicle 2.93207e-015 1.35174e-014
rhumerus -30.7179 -18.2061 -78.5542
rradius 27.9855
rwrist 11.9857
rhand -13.5649 11.0379
rfingers 7.12502
rthumb 12.5486 -18.5653
lclavicle 2.93207e-015 1.35174e-014
lhumerus -31.0014 17.4765 80.6095
lradius 22.0897
lwrist -15.1355
lhand -11.9657 30.6282
lfingers 7.12502
lthumb 14.0901 60.1306
rfemur -22.8822 -1.94586 17.1916
rtibia 66.269
rfoot -3.10537 -6.72914
rtoes 4.93345
lfemur -9.77769 2.2977 -29.4234
ltibia 23.2023
lfoot -11.0186 -4.34565
ltoes 6.39731
104
root -8.24142 17.5314 -16.5355 -0.356996 -5.0794 4.4821
lowerback 6.6523 -0.219108 -4.60727
upperback -0.126132 -0.616768 0.91008
thorax -3.8078 -0.20948 3.59665
lowerneck -17.7071 -2.37989 -9.34616
upperneck 20.4096 -1.71336 4.37095
head 9.50067 -1.03827 2.84183
rclavicle 2.98177e-015 -1.98785e-014
rhumerus -30.9783 -18.4991 -78.2921
rradius 27.5171
rwrist 11.9157
rhand -13.8861 11.9473
rfingers 7.12502
rthumb 12.2389 -17.6746
lclavicle 2.98177e-015 -1.98785e-014
lhumerus -30.6267 16.8461 80.9266
lradius 22.1586
lwrist -13.5428
lhand -13.1266 29.8292
lfingers 7.12502
lthumb 12.9712 59.406
rfemur -23.9504 -1.92719 17.019
rtibia 65.7614
rfoot -4.01499 -6.59182
rtoes 5.29691
lfemur -9.73907 2.27744 -29.7241
ltibia 23.7958
lfoot -11.8814 -4.38003
ltoes 4.70463
105
root -8.24445 17.508 -16.4159 -0.240783 -4.95707 4.45082
lowerback 6.88209 -0.310274 -4.73885
upperback -0.219235 -0.757356 1.02011
thorax -4.01786 -0.268119 3.80404
lowerneck -17.7357 -2.42974 -9.28847
upperneck 20.1274 -1.72562 4.08959
head 9.40648 -1.06546 2.72742
rclavicle -1.79155e-014 -1.19271e-014
rhumerus -31.0582 -19.098 -77.8705
rradius 26.8795
rwrist 12.1508
rhand -13.7087 13.0099
rfingers 7.12502
rthumb 12.41 -16.6017
lclavicle -1.79155e-014 -1.19271e-014
lhumerus -30.3402 16.5689 81.0767
lradius 22.4496
lwrist -12.9766
lhand -13.1855 29.0261
lfingers 7.12502
lthumb 12.9144 58.6065
rfemur -25.0228 -1.72851 17.1546
rtibia 65.088
rfoot -5.0907 -6.55217
rtoes 2.85034
lfemur -9.66792 2.20302 -29.7131
ltibia 24.3714
lfoot -12.5368 -4.247
ltoes 4.54475
106
root -8.23732 17.4778 -16.2787 -0.307494 -4.92639 4.48484
lowerback 6.94114 -0.407534 -4.66329
upperback -0.0986059 -0.88193 1.00786
thorax -3.9139 -0.336846 3.76051
lowerneck -18.1939 -2.42808 -9.18704
upperneck 20.2446 -1.65866 3.88932
head 9.52458 -1.04759 2.65033
rclavicle 2.52953e-014 -4.77083e-015
rhumerus -31.0355 -19.4248 -77.7702
rradius 26.6211
rwrist 12.0538
rhand -13.4419 13.2024
rfingers 7.12502
rthumb 12.6672 -16.3934
lclavicle 2.52953e-014 -4.77083e-015
lhumerus -29.955 16.2188 81.1498
lradius 22.9921
lwrist -12.5287
lhand -12.6898 29.354
lfingers 7.12502
lthumb 13.3922 58.9035
rfemur -25.7783 -1.58608 17.1275
rtibia 64.2823
rfoot -6.43879 -6.40059
rtoes -1.57274
lfemur -9.35804 2.16666 -29.8242
ltibia 24.9497
lfoot -12.7003 -4.26815
ltoes 6.18272
107
root -8.2291 17.4485 -16.1349 -0.406265 -4.77749 4.5961
lowerback 6.87484 -0.532948 -4.62228
upperback -0.0146423 -1.04203 0.980374
thorax -3.77435 -0.422839 3.72195
lowerneck -17.9414 -2.43668 -9.2146
upperneck 19.9891 -1.66369 3.79324
head 9.38937 -1.05987 2.61729
rclavicle -3.66261e-014 6.36111e-015
rhumerus -31.2142 -19.6775 -77.5613
rradius 26.3636
rwrist 11.754
rhand -13.1534 13.3262
rfingers 7.12502
rthumb 12.9453 -16.2523
lclavicle -3.66261e-014 6.36111e-015
lhumerus -29.6909 15.671 81.3072
lradius 23.4542
lwrist -11.9574
lhand -13.2559 29.2284
lfingers 7.12502
lthumb 12.8465 58.813
rfemur -26.4004 -1.57876 16.976
rtibia 63.2984
rfoot -7.48102 -6.22397
rtoes -3.27289
lfemur -9.01365 2.21023 -30.0375
ltibia 25.5003
lfoot -12.7325 -4.45305
ltoes 7.40448
108
root -8.22982 17.4335 -16.0039 -0.460742 -4.743 4.63873
lowerback 6.95999 -0.603129 -4.77227
upperback 0.00264452 -1.14673 1.10125
thorax -3.78886 -0.470931 3.94466
lowerneck -17.6821 -2.38401 -9.32061
upperneck 19.7806 -1.54932 3.63612
head 9.26225 -1.03 2.59256
rclavicle 1.41634e-014 -3.97569e-015
rhumerus -31.4679 -19.8156 -77.1835
rradius 26.168
rwrist 11.8567
rhand -13.0219 13.4919
rfingers 7.12502
rthumb 13.0721 -16.0785
lclavicle 1.41634e-014 -3.97569e-015
lhumerus -29.4518 15.3147 81.596
lradius 23.9737
lwrist -11.557
lhand -13.5759 29.2087
lfingers 7.12502
lthumb 12.538 58.8125
rfemur -27.0725 -1.32741 16.9582
rtibia 62.0876
rfoot -8.26032 -6.13684
rtoes -2.75623
lfemur -8.69082 2.201 -30.1332
ltibia 25.9567
lfoot -13.183 -4.29599
ltoes 7.9792
